<svg width="115" height="26" viewBox="0 0 115 26" fill="none" xmlns="http://www.w3.org/2000/svg">
<g clip-path="url(#clip0_405_2188)">
<path d="M15.8761 19.0423C15.7557 19.1628 15.6127 19.2583 15.4553 19.3235C15.298 19.3887 15.1293 19.4223 14.959 19.4223C14.7887 19.4223 14.62 19.3887 14.4627 19.3235C14.3053 19.2583 14.1623 19.1628 14.0419 19.0423L6.58158 11.5831C5.50559 10.4852 4.90637 9.00695 4.91414 7.46968C4.9219 5.93241 5.53602 4.46032 6.62305 3.37329C7.71008 2.28627 9.18217 1.67215 10.7194 1.66438C12.2567 1.65662 13.7349 2.25584 14.8329 3.33183L19.5479 8.04685C19.7905 8.2907 19.9263 8.62093 19.9254 8.9649C19.9245 9.30887 19.787 9.6384 19.5432 9.881C19.2993 10.1236 18.9691 10.2594 18.6251 10.2585C18.2812 10.2576 17.9516 10.1201 17.709 9.87628L12.9999 5.16126C12.3915 4.55289 11.5664 4.21111 10.7061 4.21111C9.84569 4.21111 9.02056 4.55289 8.41219 5.16126C7.80382 5.76963 7.46205 6.59475 7.46205 7.45512C7.46205 8.31548 7.80382 9.14061 8.41219 9.74898L15.8725 17.2093C16.116 17.452 16.253 17.7814 16.2537 18.1251C16.2544 18.4688 16.1185 18.7987 15.8761 19.0423Z" fill="#E7DEFE"/>
<path d="M19.5018 22.6682C18.4067 23.7606 16.923 24.374 15.3762 24.374C13.8294 24.374 12.3457 23.7606 11.2505 22.6682L6.54139 17.9531C6.41072 17.8353 6.3054 17.692 6.23187 17.5321C6.15834 17.3722 6.11813 17.199 6.11369 17.0231C6.10925 16.8471 6.14068 16.6721 6.20605 16.5087C6.27142 16.3453 6.36938 16.197 6.49394 16.0726C6.61851 15.9483 6.76708 15.8506 6.93061 15.7856C7.09414 15.7205 7.2692 15.6894 7.44512 15.6942C7.62105 15.699 7.79417 15.7395 7.95392 15.8134C8.11368 15.8872 8.25673 15.9928 8.37436 16.1237L13.0835 20.8387C13.6928 21.4399 14.5151 21.7757 15.3711 21.7729C16.227 21.77 17.0471 21.4287 17.6524 20.8234C18.2576 20.2182 18.5989 19.3981 18.6018 18.5421C18.6047 17.6862 18.2689 16.8638 17.6677 16.2546L10.2073 8.79067C9.9641 8.54745 9.82746 8.21757 9.82746 7.8736C9.82746 7.52963 9.9641 7.19975 10.2073 6.95652C10.4505 6.7133 10.7804 6.57666 11.1244 6.57666C11.4684 6.57666 11.7982 6.7133 12.0415 6.95652L19.5018 14.4169C20.5945 15.5119 21.2082 16.9956 21.2082 18.5425C21.2082 20.0894 20.5945 21.5732 19.5018 22.6682Z" fill="#E7DEFE"/>
</g>
<path d="M40.18 20.28C39.1 20.28 38.1467 20.0867 37.32 19.7C36.4933 19.3133 35.8467 18.76 35.38 18.04C34.9133 17.32 34.68 16.4533 34.68 15.44V14.88H37.28V15.44C37.28 16.28 37.54 16.9133 38.06 17.34C38.58 17.7533 39.2867 17.96 40.18 17.96C41.0867 17.96 41.76 17.78 42.2 17.42C42.6533 17.06 42.88 16.6 42.88 16.04C42.88 15.6533 42.7667 15.34 42.54 15.1C42.3267 14.86 42.0067 14.6667 41.58 14.52C41.1667 14.36 40.66 14.2133 40.06 14.08L39.6 13.98C38.64 13.7667 37.8133 13.5 37.12 13.18C36.44 12.8467 35.9133 12.4133 35.54 11.88C35.18 11.3467 35 10.6533 35 9.8C35 8.94667 35.2 8.22 35.6 7.62C36.0133 7.00667 36.5867 6.54 37.32 6.22C38.0667 5.88667 38.94 5.72 39.94 5.72C40.94 5.72 41.8267 5.89333 42.6 6.24C43.3867 6.57333 44 7.08 44.44 7.76C44.8933 8.42667 45.12 9.26667 45.12 10.28V10.88H42.52V10.28C42.52 9.74667 42.4133 9.32 42.2 9C42 8.66667 41.7067 8.42667 41.32 8.28C40.9333 8.12 40.4733 8.04 39.94 8.04C39.14 8.04 38.5467 8.19333 38.16 8.5C37.7867 8.79333 37.6 9.2 37.6 9.72C37.6 10.0667 37.6867 10.36 37.86 10.6C38.0467 10.84 38.32 11.04 38.68 11.2C39.04 11.36 39.5 11.5 40.06 11.62L40.52 11.72C41.52 11.9333 42.3867 12.2067 43.12 12.54C43.8667 12.8733 44.4467 13.3133 44.86 13.86C45.2733 14.4067 45.48 15.1067 45.48 15.96C45.48 16.8133 45.26 17.5667 44.82 18.22C44.3933 18.86 43.78 19.3667 42.98 19.74C42.1933 20.1 41.26 20.28 40.18 20.28ZM46.9289 24V10.08H49.4089V11.28H49.7689C49.9956 10.8933 50.3489 10.5533 50.8289 10.26C51.3089 9.95333 51.9956 9.8 52.8889 9.8C53.6889 9.8 54.4289 10 55.1089 10.4C55.7889 10.7867 56.3356 11.36 56.7489 12.12C57.1622 12.88 57.3689 13.8 57.3689 14.88V15.2C57.3689 16.28 57.1622 17.2 56.7489 17.96C56.3356 18.72 55.7889 19.3 55.1089 19.7C54.4289 20.0867 53.6889 20.28 52.8889 20.28C52.2889 20.28 51.7822 20.2067 51.3689 20.06C50.9689 19.9267 50.6422 19.7533 50.3889 19.54C50.1489 19.3133 49.9556 19.0867 49.8089 18.86H49.4489V24H46.9289ZM52.1289 18.08C52.9156 18.08 53.5622 17.8333 54.0689 17.34C54.5889 16.8333 54.8489 16.1 54.8489 15.14V14.94C54.8489 13.98 54.5889 13.2533 54.0689 12.76C53.5489 12.2533 52.9022 12 52.1289 12C51.3556 12 50.7089 12.2533 50.1889 12.76C49.6689 13.2533 49.4089 13.98 49.4089 14.94V15.14C49.4089 16.1 49.6689 16.8333 50.1889 17.34C50.7089 17.8333 51.3556 18.08 52.1289 18.08ZM63.6028 20.28C62.6161 20.28 61.7428 20.0733 60.9828 19.66C60.2361 19.2333 59.6495 18.64 59.2228 17.88C58.8095 17.1067 58.6028 16.2 58.6028 15.16V14.92C58.6028 13.88 58.8095 12.98 59.2228 12.22C59.6361 11.4467 60.2161 10.8533 60.9628 10.44C61.7095 10.0133 62.5761 9.8 63.5628 9.8C64.5361 9.8 65.3828 10.02 66.1028 10.46C66.8228 10.8867 67.3828 11.4867 67.7828 12.26C68.1828 13.02 68.3828 13.9067 68.3828 14.92V15.78H61.1628C61.1895 16.46 61.4428 17.0133 61.9228 17.44C62.4028 17.8667 62.9895 18.08 63.6828 18.08C64.3895 18.08 64.9095 17.9267 65.2428 17.62C65.5761 17.3133 65.8295 16.9733 66.0028 16.6L68.0628 17.68C67.8761 18.0267 67.6028 18.4067 67.2428 18.82C66.8961 19.22 66.4295 19.5667 65.8428 19.86C65.2561 20.14 64.5095 20.28 63.6028 20.28ZM61.1828 13.9H65.8228C65.7695 13.3267 65.5361 12.8667 65.1228 12.52C64.7228 12.1733 64.1961 12 63.5428 12C62.8628 12 62.3228 12.1733 61.9228 12.52C61.5228 12.8667 61.2761 13.3267 61.1828 13.9ZM70.0258 20V10.08H72.5058V11.38H72.8658C73.0258 11.0333 73.3258 10.7067 73.7658 10.4C74.2058 10.08 74.8724 9.92 75.7658 9.92C76.5391 9.92 77.2124 10.1 77.7858 10.46C78.3724 10.8067 78.8258 11.2933 79.1458 11.92C79.4658 12.5333 79.6258 13.2533 79.6258 14.08V20H77.1058V14.28C77.1058 13.5333 76.9191 12.9733 76.5458 12.6C76.1858 12.2267 75.6658 12.04 74.9858 12.04C74.2124 12.04 73.6124 12.3 73.1858 12.82C72.7591 13.3267 72.5458 14.04 72.5458 14.96V20H70.0258ZM85.75 20.28C84.9633 20.28 84.2233 20.0867 83.53 19.7C82.85 19.3 82.3033 18.72 81.89 17.96C81.4767 17.2 81.27 16.28 81.27 15.2V14.88C81.27 13.8 81.4767 12.88 81.89 12.12C82.3033 11.36 82.85 10.7867 83.53 10.4C84.21 10 84.95 9.8 85.75 9.8C86.35 9.8 86.85 9.87333 87.25 10.02C87.6633 10.1533 87.9967 10.3267 88.25 10.54C88.5033 10.7533 88.6967 10.98 88.83 11.22H89.19V6H91.71V20H89.23V18.8H88.87C88.6433 19.1733 88.29 19.5133 87.81 19.82C87.3433 20.1267 86.6567 20.28 85.75 20.28ZM86.51 18.08C87.2833 18.08 87.93 17.8333 88.45 17.34C88.97 16.8333 89.23 16.1 89.23 15.14V14.94C89.23 13.98 88.97 13.2533 88.45 12.76C87.9433 12.2533 87.2967 12 86.51 12C85.7367 12 85.09 12.2533 84.57 12.76C84.05 13.2533 83.79 13.98 83.79 14.94V15.14C83.79 16.1 84.05 16.8333 84.57 17.34C85.09 17.8333 85.7367 18.08 86.51 18.08ZM95.4839 20.28C94.9506 20.28 94.4972 20.1067 94.1239 19.76C93.7639 19.4 93.5839 18.94 93.5839 18.38C93.5839 17.82 93.7639 17.3667 94.1239 17.02C94.4972 16.66 94.9506 16.48 95.4839 16.48C96.0306 16.48 96.4839 16.66 96.8439 17.02C97.2039 17.3667 97.3839 17.82 97.3839 18.38C97.3839 18.94 97.2039 19.4 96.8439 19.76C96.4839 20.1067 96.0306 20.28 95.4839 20.28ZM99.1809 20V6H101.821V20H99.1809ZM103.934 20V10.08H106.414V11.38H106.774C106.934 11.0333 107.234 10.7067 107.674 10.4C108.114 10.08 108.781 9.92 109.674 9.92C110.448 9.92 111.121 10.1 111.694 10.46C112.281 10.8067 112.734 11.2933 113.054 11.92C113.374 12.5333 113.534 13.2533 113.534 14.08V20H111.014V14.28C111.014 13.5333 110.828 12.9733 110.454 12.6C110.094 12.2267 109.574 12.04 108.894 12.04C108.121 12.04 107.521 12.3 107.094 12.82C106.668 13.3267 106.454 14.04 106.454 14.96V20H103.934Z" fill="#E7DEFE"/>
<defs>
<clipPath id="clip0_405_2188">
<rect width="16.3317" height="22.75" fill="white" transform="translate(4.875 1.625)"/>
</clipPath>
</defs>
</svg>
